<?xml version="1.0" encoding="UTF-8"?>
<svg id="Layer_1" data-name="Layer 1" xmlns="http://www.w3.org/2000/svg" viewBox="0 0 860 860">
  <defs>
    <style>
      .cls-1 {
        fill: #d42629;
      }

      .cls-1, .cls-2, .cls-3, .cls-4 {
        stroke-width: 0px;
      }

      .cls-2 {
        fill: #88171a;
      }

      .cls-3 {
        fill: #531415;
      }

      .cls-4 {
        fill: #d56467;
      }
    </style>
  </defs>
  <path class="cls-4" d="M201,200.91c15.24-10.13,31.34-18.82,46.97-28.3,22.31-13.53,44.75-26.86,67.19-40.17,22.72-13.48,45.55-26.79,68.28-40.26,19.79-11.73,39.5-23.6,59.28-35.37,4.42-2.63,8.96-5.08,13.48-7.63,1.24,1.14.67,2.55.67,3.76.04,23.64-.01,47.28.09,70.92.01,2.96-.84,4.59-3.55,6.18-22.23,13.02-44.31,26.31-66.47,39.45-20.21,11.98-40.51,23.83-60.71,35.84-19.75,11.74-39.43,23.61-59.14,35.42-.36.38-.79.55-1.31.51-8.11-4.16-15.73-9.15-23.59-13.75-12.3-7.19-24.56-14.45-36.73-21.85-1.84-1.12-4.49-1.74-4.45-4.73Z"/>
  <path class="cls-4" d="M660.84,354.81c-7.1,5.41-15.13,9.3-22.76,13.83-17.27,10.26-34.68,20.27-52.07,30.33-13.74,7.95-27.54,15.8-41.28,23.76-17.1,9.91-34.17,19.89-51.26,29.83-13.44,7.82-26.91,15.59-40.34,23.44-13.86,8.09-27.67,16.24-41.53,24.33-1.52.89-3.19,1.52-4.78,2.26-1.5-1.05-.84-2.5-.84-3.68-.05-23.63,0-47.26-.09-70.89-.01-2.75.77-4.07,3.34-5.55,24.61-14.08,49.08-28.42,73.57-42.72,25.61-14.95,51.14-30.03,76.81-44.89,11.47-6.64,23.13-12.93,34.32-20.05.57-.61,1.28-.74,2.06-.63,7.39,3.39,14.08,8.02,21.07,12.11,13.15,7.68,26.25,15.44,39.28,23.33,1.96,1.19,4.85,1.87,4.5,5.18Z"/>
  <path class="cls-1" d="M266.08,240.73c.33,0,.66,0,1,0,9.6,5.52,19.26,10.95,28.8,16.58,17.14,10.12,34.2,20.38,51.29,30.57,17.66,10.53,35.32,21.05,53,31.54,1.09.65,2.4.94,3.6,1.39,1.92.19,2.78,1.44,3.17,3.17v78.25c-6.71-3.89-12.86-7.38-18.94-10.99-19.07-11.34-38.11-22.72-57.17-34.08-18.91-11.27-37.81-22.58-56.76-33.79-19.38-11.46-38.84-22.79-58.23-34.24-5.03-2.97-9.92-6.18-14.87-9.27-.1-2.53,2.03-3.26,3.64-4.23,18.72-11.27,37.55-22.37,56.37-33.47,1.55-.92,3.11-1.99,5.1-1.42Z"/>
  <path class="cls-1" d="M595.61,314.81c-.56,0-1.13,0-1.69.01-12.85-7.7-25.7-15.4-38.55-23.09-24.23-14.49-48.33-29.19-72.76-43.32-7.84-4.53-15.2-9.99-23.72-13.35-2.33.09-2.86-1.45-3-3.33v-78.25c69.02,40.99,137.41,81.6,205.8,122.21-.37,2.5-2.45,3.44-4.28,4.49-18.94,10.94-37.88,21.9-56.69,33.06-1.58.93-3.15,1.88-5.11,1.57Z"/>
  <path class="cls-2" d="M455.89,231.74c1.73.45,1.66,2.53,3,3.33,8.08,13.19,16.16,26.38,24.25,39.56,1.48,2.41,2.87,4.43.77,7.54-8.59,12.7-17.02,25.51-25.18,38.5-1.73,2.75-3.53,3.21-6.36,3.2-15.14-.05-30.29.06-45.43.11-2.18.07-2.14-2.08-3.17-3.17-6.64-12.13-12.39-24.88-20.25-36.16-4.94-7.09-2.6-11.86.72-17.42,6.46-10.8,13.3-21.37,19.55-32.29,1.53-2.68,3.08-3.08,5.66-3.08,15.48.02,30.96-.07,46.43-.13Z"/>
  <path class="cls-3" d="M595.61,314.81c12.8-8.76,26.62-15.82,39.84-23.86,8.64-5.26,17.48-10.18,26.24-15.26,1.71,1.23.96,3.05.96,4.59.05,23.43.06,46.85-.02,70.28,0,1.49,1.28,3.91-1.8,4.25-5.85-4.89-12.71-8.16-19.2-12.03-14.89-8.86-29.84-17.64-44.74-26.48-.54-.32-.86-.99-1.28-1.5Z"/>
  <path class="cls-3" d="M266.08,240.73c-12.05,7.25-24.09,14.51-36.14,21.75-9.65,5.8-19.31,11.58-28.97,17.37-1.26-.8-.81-2.07-.81-3.16-.03-24.21-.03-48.43,0-72.64,0-1.08-.44-2.37.83-3.15,18.77,11.21,37.57,22.36,56.28,33.67,3.05,1.84,6.74,2.86,8.81,6.15Z"/>
  <g>
    <path class="cls-4" d="M285.82,755.03v-28.07h7.65c2.77,0,5.13.43,7.09,1.28s3.53,1.98,4.72,3.38c1.19,1.4,2.06,2.95,2.62,4.64.56,1.7.83,3.38.83,5.07,0,2.12-.37,4.03-1.11,5.71s-1.75,3.12-3.05,4.31c-1.29,1.19-2.78,2.1-4.45,2.74-1.67.63-3.44.95-5.3.95h-9.01ZM289.59,751.42h4.5c1.55,0,2.98-.23,4.29-.7,1.31-.47,2.45-1.14,3.42-2.02s1.73-1.96,2.27-3.24.82-2.74.82-4.37c0-1.73-.29-3.25-.85-4.56-.57-1.31-1.35-2.4-2.33-3.28-.98-.88-2.1-1.55-3.34-2s-2.55-.68-3.92-.68h-4.85v20.85Z"/>
    <path class="cls-4" d="M315.06,726.96h18.25v3.61h-14.48v8.54h12.93v3.61h-12.93v8.7h15.03v3.61h-18.79v-28.07Z"/>
    <path class="cls-4" d="M354.9,731.96c-.96-.49-2.01-.92-3.15-1.28-1.14-.36-2.25-.54-3.34-.54-1.5,0-2.7.35-3.59,1.05-.89.7-1.34,1.63-1.34,2.8,0,.88.29,1.62.86,2.23.57.61,1.32,1.13,2.25,1.57s1.9.85,2.91,1.24c.88.34,1.75.71,2.6,1.13.85.41,1.62.93,2.31,1.55.69.62,1.23,1.38,1.63,2.29.4.91.6,2.03.6,3.38,0,1.48-.37,2.82-1.11,4.04s-1.79,2.17-3.17,2.87c-1.37.7-3,1.05-4.89,1.05-1.24,0-2.43-.14-3.55-.43-1.13-.29-2.17-.65-3.13-1.11-.96-.45-1.81-.92-2.56-1.42l1.67-2.95c.62.44,1.33.86,2.14,1.26.8.4,1.64.72,2.52.97.88.25,1.73.37,2.56.37.88,0,1.75-.16,2.62-.49.87-.32,1.59-.82,2.16-1.5.57-.67.85-1.57.85-2.68,0-.96-.25-1.75-.76-2.39-.5-.63-1.17-1.18-2-1.63-.83-.45-1.71-.86-2.64-1.22-.88-.34-1.77-.71-2.68-1.11-.91-.4-1.75-.89-2.52-1.48-.78-.58-1.4-1.3-1.86-2.16-.47-.85-.7-1.89-.7-3.11,0-1.48.36-2.76,1.07-3.86.71-1.1,1.69-1.97,2.93-2.6s2.67-.98,4.27-1.03c1.81,0,3.41.22,4.79.66,1.38.44,2.61.97,3.67,1.59l-1.44,2.91Z"/>
    <path class="cls-4" d="M360.18,755.03l12.27-29.24h.23l12.23,29.24h-4.31l-9.16-23.34,2.68-1.75-10.25,25.08h-3.69ZM367.36,744.39h10.45l1.24,3.26h-12.78l1.09-3.26Z"/>
    <path class="cls-4" d="M397.65,726.96c1.42,0,2.74.19,3.94.56,1.2.38,2.25.93,3.14,1.67.89.74,1.59,1.64,2.1,2.72.5,1.07.76,2.32.76,3.75,0,1.11-.16,2.2-.48,3.26-.32,1.06-.86,2.03-1.61,2.89-.75.87-1.73,1.57-2.93,2.1-1.2.53-2.69.8-4.45.8h-4.15v10.33h-3.77v-28.07h7.46ZM398.04,741.09c1.11,0,2.04-.17,2.78-.5.74-.34,1.31-.77,1.73-1.3.41-.53.71-1.11.89-1.73s.27-1.2.27-1.75-.1-1.16-.29-1.77c-.19-.61-.5-1.17-.93-1.69-.43-.52-.98-.94-1.67-1.28-.69-.34-1.52-.5-2.5-.5h-4.35v10.52h4.08ZM402.66,743.22l7.34,11.8h-4.35l-7.46-11.69,4.47-.12Z"/>
    <path class="cls-4" d="M423.24,726.96c1.42,0,2.74.19,3.94.56,1.21.38,2.25.93,3.15,1.67.89.74,1.59,1.64,2.1,2.72.51,1.07.76,2.32.76,3.75,0,1.11-.16,2.2-.48,3.26-.32,1.06-.86,2.03-1.61,2.89-.75.87-1.73,1.57-2.93,2.1-1.2.53-2.69.8-4.45.8h-4.15v10.33h-3.77v-28.07h7.46ZM423.63,741.09c1.11,0,2.04-.17,2.78-.5.74-.34,1.31-.77,1.73-1.3.41-.53.71-1.11.89-1.73.18-.62.27-1.2.27-1.75s-.1-1.16-.29-1.77c-.2-.61-.51-1.17-.93-1.69-.43-.52-.98-.94-1.67-1.28-.69-.34-1.52-.5-2.5-.5h-4.35v10.52h4.08ZM428.25,743.22l7.34,11.8h-4.35l-7.46-11.69,4.46-.12Z"/>
    <path class="cls-4" d="M439,741.01c0-1.94.37-3.77,1.11-5.49s1.77-3.25,3.09-4.58,2.84-2.38,4.56-3.15c1.72-.76,3.58-1.15,5.57-1.15s3.81.38,5.53,1.15c1.72.76,3.25,1.81,4.58,3.15,1.33,1.33,2.38,2.86,3.13,4.58.75,1.72,1.12,3.55,1.12,5.49s-.38,3.86-1.12,5.59c-.75,1.73-1.79,3.25-3.11,4.56s-2.85,2.33-4.58,3.07c-1.73.74-3.59,1.11-5.55,1.11s-3.85-.36-5.57-1.09c-1.72-.72-3.24-1.73-4.56-3.03-1.32-1.29-2.35-2.81-3.09-4.54-.74-1.73-1.11-3.62-1.11-5.67ZM442.89,741.05c0,1.48.27,2.85.82,4.13s1.29,2.41,2.25,3.4c.96.98,2.07,1.75,3.34,2.31,1.27.56,2.64.83,4.12.83s2.81-.28,4.08-.83c1.27-.56,2.37-1.33,3.3-2.31.93-.98,1.67-2.12,2.21-3.4.54-1.28.81-2.67.81-4.17s-.27-2.87-.81-4.17c-.54-1.31-1.29-2.45-2.25-3.44-.96-.98-2.07-1.75-3.34-2.31-1.27-.56-2.63-.83-4.08-.83s-2.85.29-4.12.85c-1.27.57-2.38,1.35-3.34,2.33-.96.98-1.7,2.13-2.21,3.44-.52,1.31-.78,2.7-.78,4.17Z"/>
    <path class="cls-4" d="M474.03,726.96h3.77v24.46h14.25v3.61h-18.02v-28.07Z"/>
    <path class="cls-4" d="M495.93,741.01c0-1.94.37-3.77,1.11-5.49.74-1.72,1.77-3.25,3.09-4.58s2.84-2.38,4.56-3.15c1.72-.76,3.58-1.15,5.57-1.15s3.81.38,5.53,1.15c1.72.76,3.25,1.81,4.58,3.15,1.33,1.33,2.38,2.86,3.12,4.58.75,1.72,1.13,3.55,1.13,5.49s-.38,3.86-1.13,5.59c-.75,1.73-1.79,3.25-3.11,4.56s-2.85,2.33-4.58,3.07c-1.73.74-3.59,1.11-5.55,1.11s-3.85-.36-5.57-1.09c-1.72-.72-3.24-1.73-4.56-3.03-1.32-1.29-2.35-2.81-3.09-4.54-.74-1.73-1.11-3.62-1.11-5.67ZM499.81,741.05c0,1.48.27,2.85.81,4.13.54,1.28,1.29,2.41,2.25,3.4.96.98,2.07,1.75,3.34,2.31,1.27.56,2.64.83,4.12.83s2.81-.28,4.08-.83c1.27-.56,2.37-1.33,3.3-2.31.93-.98,1.67-2.12,2.21-3.4.54-1.28.82-2.67.82-4.17s-.27-2.87-.82-4.17c-.54-1.31-1.29-2.45-2.25-3.44-.96-.98-2.07-1.75-3.34-2.31-1.27-.56-2.63-.83-4.08-.83s-2.85.29-4.12.85c-1.27.57-2.38,1.35-3.34,2.33-.96.98-1.7,2.13-2.21,3.44-.52,1.31-.78,2.7-.78,4.17Z"/>
    <path class="cls-4" d="M551.07,741.52c-.72,0-1.44.14-2.14.43-.7.29-1.32.67-1.86,1.17-.54.49-.98,1.07-1.3,1.73-.32.66-.48,1.37-.48,2.12,0,1.01.26,1.9.79,2.66.53.76,1.24,1.36,2.14,1.79.89.43,1.87.64,2.93.64.98,0,1.85-.15,2.6-.45.75-.3,1.4-.7,1.94-1.2.54-.5.94-1.05,1.2-1.65l2.41,2.1c-.7,1.29-1.78,2.38-3.24,3.26-1.46.88-3.26,1.32-5.38,1.32-1.76,0-3.34-.36-4.74-1.09-1.4-.72-2.51-1.71-3.32-2.95-.82-1.24-1.22-2.65-1.22-4.23,0-1.22.27-2.34.82-3.38.54-1.04,1.28-1.93,2.19-2.7.92-.76,1.94-1.37,3.07-1.81,1.12-.44,2.3-.67,3.51-.7l.08,2.95ZM565.28,755.03h-4.35l-13.47-17.82c-.23-.36-.51-.82-.82-1.36-.31-.54-.58-1.15-.79-1.81-.22-.66-.33-1.34-.33-2.04,0-1.11.27-2.16.81-3.13.54-.97,1.33-1.75,2.35-2.35s2.27-.89,3.75-.89,2.89.3,4.1.89,2.19,1.29,2.97,2.1l-1.9,2.52c-.78-.72-1.55-1.3-2.31-1.73s-1.52-.64-2.27-.64c-1.14,0-2.03.34-2.66,1.03-.63.69-.95,1.51-.95,2.46,0,.47.1.95.29,1.44.19.49.39.91.58,1.24.2.34.32.56.37.66l14.64,19.42ZM560.81,738.57h3.46l-4.54,11.65-2.72-1.71,3.8-9.94Z"/>
    <path class="cls-4" d="M246.66,801.63v-28.07h7.65c2.77,0,5.13.43,7.09,1.28,1.95.85,3.53,1.98,4.72,3.38,1.19,1.4,2.06,2.95,2.62,4.64.56,1.7.83,3.38.83,5.07,0,2.12-.37,4.03-1.11,5.71-.74,1.68-1.75,3.12-3.05,4.31-1.29,1.19-2.78,2.1-4.45,2.74-1.67.63-3.44.95-5.3.95h-9.01ZM250.43,798.01h4.5c1.55,0,2.98-.23,4.29-.7,1.31-.47,2.45-1.14,3.42-2.02s1.73-1.96,2.27-3.24c.54-1.28.82-2.74.82-4.37,0-1.73-.29-3.25-.86-4.56-.57-1.31-1.35-2.4-2.33-3.28-.98-.88-2.1-1.55-3.34-2-1.24-.45-2.55-.68-3.92-.68h-4.85v20.85Z"/>
    <path class="cls-4" d="M275.9,773.55h3.77v28.07h-3.77v-28.07Z"/>
    <path class="cls-4" d="M302.27,778.56c-.96-.49-2.01-.92-3.15-1.28-1.14-.36-2.25-.54-3.34-.54-1.5,0-2.7.35-3.59,1.05-.89.7-1.34,1.63-1.34,2.8,0,.88.29,1.62.86,2.23.57.61,1.32,1.13,2.25,1.57s1.9.85,2.91,1.24c.88.34,1.75.71,2.6,1.13.85.41,1.62.93,2.31,1.55.69.62,1.23,1.38,1.63,2.29.4.91.6,2.03.6,3.38,0,1.48-.37,2.82-1.11,4.04s-1.79,2.17-3.17,2.87c-1.37.7-3,1.05-4.89,1.05-1.24,0-2.43-.14-3.55-.43-1.13-.29-2.17-.65-3.13-1.11-.96-.45-1.81-.92-2.56-1.42l1.67-2.95c.62.44,1.33.86,2.14,1.26.8.4,1.64.72,2.52.97.88.25,1.73.37,2.56.37.88,0,1.75-.16,2.62-.49.87-.32,1.59-.82,2.16-1.5.57-.67.85-1.57.85-2.68,0-.96-.25-1.75-.76-2.39-.5-.63-1.17-1.18-2-1.63-.83-.45-1.71-.86-2.64-1.22-.88-.34-1.77-.71-2.68-1.11-.91-.4-1.75-.89-2.52-1.48-.78-.58-1.4-1.3-1.86-2.16-.47-.85-.7-1.89-.7-3.11,0-1.48.36-2.76,1.07-3.86.71-1.1,1.69-1.97,2.93-2.6s2.67-.98,4.27-1.03c1.81,0,3.41.22,4.79.66,1.38.44,2.61.97,3.67,1.59l-1.44,2.91Z"/>
    <path class="cls-4" d="M310.34,773.55h18.25v3.61h-14.48v8.54h12.93v3.61h-12.93v8.7h15.03v3.61h-18.79v-28.07Z"/>
    <path class="cls-4" d="M359.97,802.52l-21.71-22.02,1.09.27.08,20.85h-3.77v-28.93h.19l21.47,22.09-.89-.19-.08-21.05h3.73v28.97h-.12ZM350.37,770.99c-.83,0-1.51-.19-2.04-.56-.53-.38-1.03-.77-1.5-1.18-.31-.28-.62-.55-.93-.8-.31-.25-.66-.37-1.05-.37-.31,0-.59.12-.83.37-.25.25-.43.58-.56,1.01-.13.43-.2.95-.2,1.57l-1.94-.04c-.08-1.01.03-1.92.33-2.72.3-.8.74-1.44,1.32-1.9.58-.47,1.28-.7,2.08-.7.67,0,1.25.18,1.75.54.49.36.94.74,1.36,1.13.36.36.71.68,1.05.95.34.27.7.41,1.09.41.52,0,.89-.28,1.11-.83.22-.56.33-1.3.33-2.23l1.94.04c.1,1.06.02,1.99-.25,2.8-.27.8-.68,1.42-1.22,1.86-.54.44-1.15.66-1.83.66Z"/>
    <path class="cls-4" d="M366.41,787.61c0-1.94.37-3.77,1.11-5.49.74-1.72,1.77-3.25,3.09-4.58,1.32-1.33,2.84-2.38,4.56-3.15s3.58-1.15,5.57-1.15,3.81.38,5.53,1.15,3.25,1.81,4.58,3.15c1.33,1.33,2.38,2.86,3.13,4.58.75,1.72,1.12,3.55,1.12,5.49s-.38,3.86-1.12,5.59c-.75,1.73-1.79,3.25-3.11,4.56s-2.85,2.33-4.58,3.07c-1.73.74-3.58,1.11-5.55,1.11s-3.85-.36-5.57-1.09-3.24-1.73-4.56-3.03c-1.32-1.29-2.35-2.81-3.09-4.54-.74-1.73-1.11-3.62-1.11-5.67ZM370.29,787.65c0,1.48.27,2.85.82,4.13.54,1.28,1.29,2.41,2.25,3.4.96.98,2.07,1.75,3.34,2.31,1.27.56,2.64.83,4.12.83s2.81-.28,4.08-.83c1.27-.56,2.37-1.33,3.3-2.31.93-.98,1.67-2.12,2.21-3.4.54-1.28.81-2.67.81-4.17s-.27-2.87-.81-4.17c-.54-1.31-1.29-2.45-2.25-3.44-.96-.98-2.07-1.75-3.34-2.31-1.27-.56-2.63-.83-4.08-.83s-2.85.29-4.12.85c-1.27.57-2.38,1.35-3.34,2.33-.96.98-1.7,2.13-2.21,3.44-.52,1.31-.78,2.7-.78,4.17Z"/>
    <path class="cls-4" d="M410.91,801.63l12.27-29.24h.23l12.23,29.24h-4.31l-9.16-23.34,2.68-1.75-10.25,25.08h-3.69ZM418.09,790.99h10.45l1.24,3.26h-12.78l1.09-3.26Z"/>
    <path class="cls-4" d="M453.2,801.63v-28.97h.04l14.72,20.89-1.59-.31,14.68-20.58h.08v28.97h-3.73v-20.42l.23,1.9-10.6,14.99h-.08l-10.76-14.99.66-1.75v20.27h-3.65Z"/>
    <path class="cls-4" d="M489.19,773.55h18.25v3.61h-14.48v8.54h12.93v3.61h-12.93v8.7h15.03v3.61h-18.79v-28.07Z"/>
    <path class="cls-4" d="M514.51,801.63v-28.07h7.65c2.77,0,5.13.43,7.09,1.28s3.53,1.98,4.72,3.38c1.19,1.4,2.06,2.95,2.62,4.64.56,1.7.83,3.38.83,5.07,0,2.12-.37,4.03-1.11,5.71-.74,1.68-1.75,3.12-3.05,4.31s-2.78,2.1-4.45,2.74c-1.67.63-3.44.95-5.3.95h-9.01ZM518.27,798.01h4.5c1.55,0,2.98-.23,4.29-.7,1.31-.47,2.45-1.14,3.42-2.02s1.73-1.96,2.27-3.24c.54-1.28.82-2.74.82-4.37,0-1.73-.29-3.25-.85-4.56-.57-1.31-1.35-2.4-2.33-3.28-.98-.88-2.1-1.55-3.34-2s-2.55-.68-3.92-.68h-4.85v20.85Z"/>
    <path class="cls-4" d="M543.75,773.55h3.77v28.07h-3.77v-28.07Z"/>
    <path class="cls-4" d="M555.59,801.63v-28.07h7.65c2.77,0,5.13.43,7.09,1.28s3.53,1.98,4.72,3.38c1.19,1.4,2.06,2.95,2.62,4.64.56,1.7.83,3.38.83,5.07,0,2.12-.37,4.03-1.11,5.71-.74,1.68-1.75,3.12-3.05,4.31s-2.78,2.1-4.45,2.74c-1.67.63-3.44.95-5.3.95h-9.01ZM559.36,798.01h4.5c1.55,0,2.98-.23,4.29-.7,1.31-.47,2.45-1.14,3.42-2.02s1.73-1.96,2.27-3.24c.54-1.28.82-2.74.82-4.37,0-1.73-.29-3.25-.85-4.56-.57-1.31-1.35-2.4-2.33-3.28-.98-.88-2.1-1.55-3.34-2s-2.55-.68-3.92-.68h-4.85v20.85Z"/>
    <path class="cls-4" d="M580.52,801.63l12.27-29.24h.23l12.23,29.24h-4.31l-9.16-23.34,2.68-1.75-10.25,25.08h-3.69ZM587.7,790.99h10.45l1.24,3.26h-12.78l1.09-3.26Z"/>
  </g>
  <g>
    <path class="cls-3" d="M207.16,628.91v-69.89h19.04c6.9,0,12.78,1.06,17.64,3.19,4.87,2.13,8.78,4.93,11.75,8.41,2.96,3.48,5.14,7.33,6.52,11.55,1.39,4.22,2.08,8.43,2.08,12.62,0,5.29-.92,10.02-2.75,14.21-1.84,4.19-4.37,7.77-7.59,10.73-3.22,2.96-6.91,5.24-11.07,6.82-4.16,1.58-8.55,2.37-13.19,2.37h-22.43ZM216.54,619.92h11.21c3.87,0,7.43-.58,10.68-1.74,3.25-1.16,6.09-2.84,8.51-5.03,2.42-2.19,4.3-4.88,5.65-8.07,1.35-3.19,2.03-6.82,2.03-10.88,0-4.32-.71-8.1-2.13-11.36-1.42-3.25-3.35-5.98-5.8-8.17-2.45-2.19-5.22-3.85-8.31-4.98-3.09-1.13-6.35-1.69-9.76-1.69h-12.08v51.91Z"/>
    <path class="cls-3" d="M279.95,559.02h45.43v8.99h-36.06v21.27h32.19v8.99h-32.19v21.65h37.41v8.99h-46.79v-69.89Z"/>
    <path class="cls-3" d="M348,559.02l23.01,57.81-5.32-1.06,21.85-56.74h10.92l-30.84,73.08-30.74-73.08h11.12Z"/>
    <path class="cls-3" d="M407.55,604.17h18.08v7.93h-18.08v-7.93Z"/>
    <path class="cls-3" d="M435.77,559.41h10.83l18.95,53.36-1.64-.68,13.82-35.77,4.35,12.66-18.46,43.11-27.84-72.69ZM469.32,559.41h9.38l20.49,52.59-1.93-.39,18.08-52.2h9.96l-27.45,72.6-28.52-72.6Z"/>
    <path class="cls-3" d="M539.3,559.02h45.43v8.99h-36.06v21.27h32.19v8.99h-32.19v21.65h37.41v8.99h-46.79v-69.89Z"/>
    <path class="cls-3" d="M620.31,559.02c7.02,0,12.55,1.43,16.58,4.3,4.03,2.87,6.04,7.33,6.04,13.39,0,3.67-.84,6.86-2.51,9.57-1.68,2.71-4.01,4.83-7.01,6.38-3,1.55-6.53,2.42-10.58,2.61l-1.35-4.83c4.7.13,8.92.97,12.66,2.51,3.74,1.55,6.7,3.71,8.89,6.48,2.19,2.77,3.29,6.06,3.29,9.86,0,3.48-.64,6.46-1.93,8.94-1.29,2.48-3.03,4.51-5.22,6.09-2.19,1.58-4.67,2.74-7.44,3.48-2.77.74-5.64,1.11-8.6,1.11h-20.78v-69.89h17.98ZM622.24,589.67c3.87,0,6.67-1.08,8.41-3.24,1.74-2.16,2.61-4.79,2.61-7.88,0-3.67-1.13-6.35-3.38-8.02-2.26-1.67-5.29-2.51-9.09-2.51h-9.09v21.65h10.54ZM622.63,620.21c2.58,0,4.94-.39,7.1-1.16,2.16-.77,3.87-1.96,5.12-3.58,1.26-1.61,1.89-3.64,1.89-6.09,0-2.71-.73-4.83-2.18-6.38-1.45-1.55-3.3-2.66-5.56-3.33-2.26-.68-4.58-1.02-6.96-1.02h-10.34v21.56h10.92Z"/>
  </g>
  <g>
    <path class="cls-1" d="M221.92,644.95c4.11,0,7.62.69,10.53,2.07,2.91,1.38,5.16,3.37,6.75,5.97,1.59,2.6,2.38,5.75,2.38,9.44,0,2.24-.34,4.43-1.01,6.59-.68,2.16-1.75,4.11-3.24,5.85-1.48,1.74-3.42,3.13-5.81,4.17-2.39,1.04-5.3,1.56-8.74,1.56h-8.35v20.75h-7.57v-56.39h15.05ZM222.7,673.34c2.24,0,4.08-.36,5.54-1.09,1.46-.73,2.6-1.65,3.43-2.77.83-1.12,1.43-2.3,1.79-3.55.36-1.25.55-2.37.55-3.35,0-1.14-.18-2.33-.55-3.55-.36-1.22-.98-2.34-1.83-3.35-.86-1.01-1.98-1.85-3.35-2.5-1.38-.65-3.08-.97-5.11-.97h-8.74v21.14h8.27Z"/>
    <path class="cls-1" d="M241.96,701.35l24.65-58.73h.47l24.57,58.73h-8.66l-18.41-46.88,5.38-3.51-20.59,50.39h-7.41ZM256.39,679.97h20.98l2.5,6.55h-25.66l2.18-6.55Z"/>
    <path class="cls-1" d="M293.44,644.95h37.44v7.25h-15.13v49.14h-7.57v-49.14h-14.74v-7.25Z"/>
    <path class="cls-1" d="M332.6,701.35l24.65-58.73h.47l24.57,58.73h-8.66l-18.41-46.88,5.38-3.51-20.59,50.39h-7.41ZM347.03,679.97h20.98l2.5,6.55h-25.66l2.18-6.55Z"/>
    <path class="cls-1" d="M434.7,696.51c-.78.68-1.87,1.34-3.28,1.99-1.4.65-2.95,1.24-4.64,1.75-1.69.52-3.43.94-5.23,1.25-1.79.31-3.47.47-5.03.47-4.52,0-8.59-.7-12.21-2.11-3.61-1.4-6.71-3.35-9.28-5.85-2.57-2.5-4.55-5.43-5.93-8.81-1.38-3.38-2.07-7.04-2.07-11,0-4.68.77-8.88,2.3-12.6,1.53-3.72,3.64-6.86,6.32-9.44,2.68-2.57,5.76-4.52,9.24-5.85,3.48-1.33,7.18-1.99,11.08-1.99,3.28,0,6.32.39,9.13,1.17,2.81.78,5.28,1.77,7.41,2.96l-2.57,6.94c-1.04-.62-2.33-1.2-3.86-1.72-1.54-.52-3.11-.95-4.72-1.29-1.61-.34-3.12-.51-4.52-.51-3.33,0-6.34.51-9.05,1.52-2.71,1.01-5.02,2.47-6.94,4.37-1.92,1.9-3.41,4.19-4.45,6.86-1.04,2.68-1.56,5.68-1.56,9.01,0,3.07.52,5.88,1.56,8.42s2.52,4.75,4.45,6.59c1.92,1.85,4.22,3.28,6.9,4.29,2.68,1.01,5.63,1.52,8.85,1.52,1.92,0,3.82-.19,5.69-.58,1.87-.39,3.48-.95,4.84-1.68v-11.23h-11.23v-7.25h18.8v22.78Z"/>
    <path class="cls-1" d="M445.31,673.19c0-3.9.74-7.58,2.22-11.04,1.48-3.46,3.55-6.52,6.2-9.2,2.65-2.68,5.71-4.78,9.17-6.32,3.46-1.53,7.19-2.3,11.19-2.3s7.66.77,11.12,2.3c3.46,1.53,6.53,3.64,9.2,6.32,2.68,2.68,4.77,5.75,6.28,9.2,1.51,3.46,2.26,7.14,2.26,11.04s-.75,7.75-2.26,11.23c-1.51,3.48-3.59,6.54-6.24,9.17-2.65,2.63-5.72,4.68-9.2,6.16-3.48,1.48-7.2,2.22-11.15,2.22s-7.74-.73-11.19-2.18c-3.46-1.46-6.51-3.48-9.17-6.08-2.65-2.6-4.72-5.64-6.2-9.13-1.48-3.48-2.22-7.28-2.22-11.39ZM453.11,673.27c0,2.96.55,5.73,1.64,8.31,1.09,2.57,2.6,4.85,4.52,6.83,1.92,1.98,4.16,3.52,6.71,4.64,2.55,1.12,5.3,1.68,8.27,1.68s5.64-.56,8.19-1.68c2.55-1.12,4.76-2.66,6.63-4.64,1.87-1.98,3.35-4.25,4.45-6.83,1.09-2.57,1.64-5.37,1.64-8.38s-.55-5.76-1.64-8.38c-1.09-2.62-2.6-4.93-4.52-6.9-1.92-1.98-4.16-3.52-6.71-4.64-2.55-1.12-5.28-1.68-8.19-1.68s-5.72.57-8.27,1.72c-2.55,1.14-4.79,2.7-6.71,4.68-1.92,1.98-3.41,4.28-4.45,6.9-1.04,2.63-1.56,5.42-1.56,8.38Z"/>
    <path class="cls-1" d="M564.18,703.14l-43.6-44.23,2.18.55.16,41.89h-7.57v-58.11h.39l43.13,44.38-1.79-.39-.16-42.28h7.49v58.19h-.23Z"/>
    <path class="cls-1" d="M580.33,644.95h7.57v56.39h-7.57v-56.39Z"/>
    <path class="cls-1" d="M598.19,701.35l24.65-58.73h.47l24.57,58.73h-8.66l-18.41-46.88,5.38-3.51-20.59,50.39h-7.41ZM612.62,679.97h20.98l2.5,6.55h-25.66l2.18-6.55Z"/>
  </g>
</svg>