<?xml version="1.0" encoding="UTF-8"?>
<svg id="Layer_1" data-name="Layer 1" xmlns="http://www.w3.org/2000/svg" viewBox="0 0 551.79 517.49">
  <defs>
    <style>
      .cls-1 {
        fill: #d42629;
      }

      .cls-1, .cls-2, .cls-3, .cls-4 {
        stroke-width: 0px;
      }

      .cls-2 {
        fill: #88171a;
      }

      .cls-3 {
        fill: #531415;
      }

      .cls-4 {
        fill: #d56467;
      }
    </style>
  </defs>
  <path class="cls-4" d="M45.4,183.77c15.24-10.13,31.34-18.82,46.97-28.3,22.31-13.53,44.75-26.86,67.19-40.17,22.72-13.48,45.55-26.79,68.28-40.26,19.79-11.73,39.5-23.6,59.28-35.37,4.42-2.63,8.96-5.08,13.48-7.63,1.24,1.14.67,2.55.67,3.76.04,23.64-.01,47.28.09,70.92.01,2.96-.84,4.59-3.55,6.18-22.23,13.02-44.31,26.31-66.47,39.45-20.21,11.98-40.51,23.83-60.71,35.84-19.75,11.74-39.43,23.61-59.14,35.42-.36.38-.79.55-1.31.51-8.11-4.16-15.73-9.15-23.59-13.75-12.3-7.19-24.56-14.45-36.73-21.85-1.84-1.12-4.49-1.74-4.45-4.73Z"/>
  <path class="cls-4" d="M505.24,337.67c-7.1,5.41-15.13,9.3-22.76,13.83-17.27,10.26-34.68,20.27-52.07,30.33-13.74,7.95-27.54,15.8-41.28,23.76-17.1,9.91-34.17,19.89-51.26,29.83-13.44,7.82-26.91,15.59-40.34,23.44-13.86,8.09-27.67,16.24-41.53,24.33-1.52.89-3.19,1.52-4.78,2.26-1.5-1.05-.84-2.5-.84-3.68-.05-23.63,0-47.26-.09-70.89-.01-2.75.77-4.07,3.34-5.55,24.61-14.08,49.08-28.42,73.57-42.72,25.61-14.95,51.14-30.03,76.81-44.89,11.47-6.64,23.13-12.93,34.32-20.05.57-.61,1.28-.74,2.06-.63,7.39,3.39,14.08,8.02,21.07,12.11,13.15,7.68,26.25,15.44,39.28,23.33,1.96,1.19,4.85,1.87,4.5,5.18Z"/>
  <path class="cls-1" d="M110.49,223.59c.33,0,.66,0,1,0,9.6,5.52,19.26,10.95,28.8,16.58,17.14,10.12,34.2,20.38,51.29,30.57,17.66,10.53,35.32,21.05,53,31.54,1.09.65,2.4.94,3.6,1.39,1.92.19,2.78,1.44,3.17,3.17v78.25c-6.71-3.89-12.86-7.38-18.94-10.99-19.07-11.34-38.11-22.72-57.17-34.08-18.91-11.27-37.81-22.58-56.76-33.79-19.38-11.46-38.84-22.79-58.23-34.24-5.03-2.97-9.92-6.18-14.87-9.27-.1-2.53,2.03-3.26,3.64-4.23,18.72-11.27,37.55-22.37,56.37-33.47,1.55-.92,3.11-1.99,5.1-1.42Z"/>
  <path class="cls-1" d="M440.01,297.67c-.56,0-1.13,0-1.69.01-12.85-7.7-25.7-15.4-38.55-23.09-24.23-14.49-48.33-29.19-72.76-43.32-7.84-4.53-15.2-9.99-23.72-13.35-2.33.09-2.86-1.45-3-3.33v-78.25c69.02,40.99,137.41,81.6,205.8,122.21-.37,2.5-2.45,3.44-4.28,4.49-18.94,10.94-37.88,21.9-56.69,33.06-1.58.93-3.15,1.88-5.11,1.57Z"/>
  <path class="cls-2" d="M300.29,214.6c1.73.45,1.66,2.53,3,3.33,8.08,13.19,16.16,26.38,24.25,39.56,1.48,2.41,2.87,4.43.77,7.54-8.59,12.7-17.02,25.51-25.18,38.5-1.73,2.75-3.53,3.21-6.36,3.2-15.14-.05-30.29.06-45.43.11-2.18.07-2.14-2.08-3.17-3.17-6.64-12.13-12.39-24.88-20.25-36.16-4.94-7.09-2.6-11.86.72-17.42,6.46-10.8,13.3-21.37,19.55-32.29,1.53-2.68,3.08-3.08,5.66-3.08,15.48.02,30.96-.07,46.43-.13Z"/>
  <path class="cls-3" d="M440.01,297.67c12.8-8.76,26.62-15.82,39.84-23.86,8.64-5.26,17.48-10.18,26.24-15.26,1.71,1.23.96,3.05.96,4.59.05,23.43.06,46.85-.02,70.28,0,1.49,1.28,3.91-1.8,4.25-5.85-4.89-12.71-8.16-19.2-12.03-14.89-8.86-29.84-17.64-44.74-26.48-.54-.32-.86-.99-1.28-1.5Z"/>
  <path class="cls-3" d="M110.49,223.59c-12.05,7.25-24.09,14.51-36.14,21.75-9.65,5.8-19.31,11.58-28.97,17.37-1.26-.8-.81-2.07-.81-3.16-.03-24.21-.03-48.43,0-72.64,0-1.08-.44-2.37.83-3.15,18.77,11.21,37.57,22.36,56.28,33.67,3.05,1.84,6.74,2.86,8.81,6.15Z"/>
</svg>