<?xml version="1.0" encoding="UTF-8"?>
<svg id="Layer_1" data-name="Layer 1" xmlns="http://www.w3.org/2000/svg" viewBox="0 0 322.96 127.65">
  <defs>
    <style>
      .cls-1 {
        fill: #d42629;
      }

      .cls-1, .cls-2, .cls-3, .cls-4 {
        stroke-width: 0px;
      }

      .cls-2 {
        fill: #88171a;
      }

      .cls-3 {
        fill: #531415;
      }

      .cls-4 {
        fill: #d56467;
      }
    </style>
  </defs>
  <g>
    <path class="cls-3" d="M121.96,73.03c2.83-1.94,5.89-3.5,8.81-5.28,1.91-1.16,3.87-2.25,5.8-3.37.38.27.21.68.21,1.02.01,5.18.01,10.36,0,15.54,0,.33.28.86-.4.94-1.29-1.08-2.81-1.81-4.25-2.66-3.29-1.96-6.6-3.9-9.9-5.86-.12-.07-.19-.22-.28-.33Z"/>
    <g>
      <path class="cls-4" d="M34.67,47.24c3.37-2.24,6.93-4.16,10.39-6.26,4.94-2.99,9.9-5.94,14.86-8.89,5.03-2.98,10.07-5.93,15.1-8.91,4.38-2.59,8.74-5.22,13.11-7.82.98-.58,1.98-1.12,2.98-1.69.27.25.15.56.15.83,0,5.23,0,10.46.02,15.69,0,.66-.18,1.01-.79,1.37-4.92,2.88-9.8,5.82-14.7,8.73-4.47,2.65-8.96,5.27-13.43,7.93-4.37,2.6-8.72,5.22-13.08,7.83-.08.08-.18.12-.29.11-1.79-.92-3.48-2.02-5.22-3.04-2.72-1.59-5.43-3.2-8.13-4.83-.41-.25-.99-.38-.98-1.05Z"/>
      <path class="cls-4" d="M136.39,81.28c-1.57,1.2-3.35,2.06-5.03,3.06-3.82,2.27-7.67,4.48-11.52,6.71-3.04,1.76-6.09,3.5-9.13,5.26-3.78,2.19-7.56,4.4-11.34,6.6-2.97,1.73-5.95,3.45-8.92,5.18-3.06,1.79-6.12,3.59-9.19,5.38-.34.2-.7.34-1.06.5-.33-.23-.19-.55-.19-.82-.01-5.23,0-10.45-.02-15.68,0-.61.17-.9.74-1.23,5.44-3.11,10.86-6.29,16.27-9.45,5.66-3.31,11.31-6.64,16.99-9.93,2.54-1.47,5.12-2.86,7.59-4.44.13-.13.28-.16.46-.14,1.63.75,3.11,1.77,4.66,2.68,2.91,1.7,5.81,3.42,8.69,5.16.43.26,1.07.41,1,1.15Z"/>
      <path class="cls-1" d="M49.07,56.05c.07,0,.15,0,.22,0,2.12,1.22,4.26,2.42,6.37,3.67,3.79,2.24,7.56,4.51,11.35,6.76,3.91,2.33,7.81,4.66,11.72,6.98.24.14.53.21.8.31.42.04.62.32.7.7v17.31c-1.48-.86-2.85-1.63-4.19-2.43-4.22-2.51-8.43-5.03-12.64-7.54-4.18-2.49-8.36-5-12.55-7.47-4.29-2.54-8.59-5.04-12.88-7.57-1.11-.66-2.19-1.37-3.29-2.05-.02-.56.45-.72.81-.94,4.14-2.49,8.3-4.95,12.47-7.4.34-.2.69-.44,1.13-.31Z"/>
      <path class="cls-1" d="M121.96,72.44c-.12,0-.25,0-.37,0-2.84-1.7-5.68-3.41-8.53-5.11-5.36-3.2-10.69-6.46-16.09-9.58-1.73-1-3.36-2.21-5.25-2.95-.51.02-.63-.32-.66-.74v-17.31c15.27,9.07,30.39,18.05,45.52,27.03-.08.55-.54.76-.95.99-4.19,2.42-8.38,4.84-12.54,7.31-.35.21-.7.41-1.13.35Z"/>
      <path class="cls-2" d="M91.06,54.06c.38.1.37.56.66.74,1.79,2.92,3.57,5.84,5.36,8.75.33.53.64.98.17,1.67-1.9,2.81-3.76,5.64-5.57,8.52-.38.61-.78.71-1.41.71-3.35-.01-6.7.01-10.05.03-.48.02-.47-.46-.7-.7-1.47-2.68-2.74-5.5-4.48-8-1.09-1.57-.58-2.62.16-3.85,1.43-2.39,2.94-4.73,4.32-7.14.34-.59.68-.68,1.25-.68,3.42,0,6.85-.02,10.27-.03Z"/>
      <path class="cls-3" d="M49.07,56.05c-2.66,1.6-5.33,3.21-7.99,4.81-2.13,1.28-4.27,2.56-6.41,3.84-.28-.18-.18-.46-.18-.7,0-5.36,0-10.71,0-16.07,0-.24-.1-.52.18-.7,4.15,2.48,8.31,4.95,12.45,7.45.67.41,1.49.63,1.95,1.36Z"/>
    </g>
  </g>
  <g>
    <g>
      <path class="cls-1" d="M181.71,85.29v-8.28h2.26c.82,0,1.51.13,2.09.38s1.04.58,1.39,1c.35.41.61.87.77,1.37.16.5.25,1,.25,1.49,0,.63-.11,1.19-.33,1.68s-.52.92-.9,1.27c-.38.35-.82.62-1.31.81-.49.19-1.01.28-1.56.28h-2.66ZM182.82,84.22h1.33c.46,0,.88-.07,1.27-.21.39-.14.72-.34,1.01-.6s.51-.58.67-.96.24-.81.24-1.29c0-.51-.08-.96-.25-1.35-.17-.39-.4-.71-.69-.97-.29-.26-.62-.46-.98-.59s-.75-.2-1.16-.2h-1.43v6.15Z"/>
      <path class="cls-1" d="M190.34,77.01h5.38v1.07h-4.27v2.52h3.81v1.06h-3.81v2.57h4.43v1.07h-5.54v-8.28Z"/>
      <path class="cls-1" d="M202.08,78.49c-.28-.14-.59-.27-.93-.38-.34-.11-.66-.16-.98-.16-.44,0-.8.1-1.06.31-.26.21-.4.48-.4.82,0,.26.08.48.25.66.17.18.39.33.66.46s.56.25.86.37c.26.1.52.21.77.33.25.12.48.27.68.46.2.18.36.41.48.68.12.27.18.6.18,1,0,.44-.11.83-.33,1.19s-.53.64-.93.85c-.4.21-.89.31-1.44.31-.37,0-.72-.04-1.05-.13-.33-.08-.64-.19-.92-.33-.28-.13-.53-.27-.76-.42l.49-.87c.18.13.39.25.63.37.24.12.48.21.74.29.26.07.51.11.76.11.26,0,.52-.05.77-.14.26-.1.47-.24.64-.44.17-.2.25-.46.25-.79,0-.28-.07-.52-.22-.7-.15-.19-.35-.35-.59-.48-.24-.13-.5-.25-.78-.36-.26-.1-.52-.21-.79-.33-.27-.12-.52-.26-.74-.44-.23-.17-.41-.38-.55-.64-.14-.25-.21-.56-.21-.92,0-.44.1-.81.32-1.14.21-.32.5-.58.86-.77s.79-.29,1.26-.3c.53,0,1.01.07,1.41.19.41.13.77.29,1.08.47l-.42.86Z"/>
      <path class="cls-1" d="M203.64,85.29l3.62-8.62h.07l3.61,8.62h-1.27l-2.7-6.88.79-.52-3.02,7.4h-1.09ZM205.76,82.15h3.08l.37.96h-3.77l.32-.96Z"/>
      <path class="cls-1" d="M214.69,77.01c.42,0,.81.06,1.16.17.35.11.66.27.93.49.26.22.47.48.62.8.15.32.22.69.22,1.11,0,.33-.05.65-.14.96-.1.31-.25.6-.48.85-.22.26-.51.46-.86.62-.36.16-.79.23-1.31.23h-1.23v3.05h-1.11v-8.28h2.2ZM214.81,81.18c.33,0,.6-.05.82-.15.22-.1.39-.23.51-.38.12-.16.21-.33.26-.51s.08-.36.08-.52-.03-.34-.09-.52c-.06-.18-.15-.35-.27-.5-.13-.15-.29-.28-.49-.38-.2-.1-.45-.15-.74-.15h-1.28v3.1h1.2ZM216.17,81.81l2.16,3.48h-1.28l-2.2-3.45,1.32-.03Z"/>
      <path class="cls-1" d="M222.24,77.01c.42,0,.81.06,1.16.17.36.11.66.27.93.49.26.22.47.48.62.8.15.32.22.69.22,1.11,0,.33-.05.65-.14.96-.1.31-.25.6-.48.85-.22.26-.51.46-.87.62-.35.16-.79.23-1.31.23h-1.23v3.05h-1.11v-8.28h2.2ZM222.35,81.18c.33,0,.6-.05.82-.15.22-.1.39-.23.51-.38.12-.16.21-.33.26-.51.05-.18.08-.36.08-.52s-.03-.34-.09-.52c-.06-.18-.15-.35-.27-.5-.13-.15-.29-.28-.49-.38-.2-.1-.45-.15-.74-.15h-1.28v3.1h1.2ZM223.72,81.81l2.16,3.48h-1.28l-2.2-3.45,1.32-.03Z"/>
      <path class="cls-1" d="M226.89,81.16c0-.57.11-1.11.33-1.62s.52-.96.91-1.35.84-.7,1.35-.93c.51-.23,1.06-.34,1.64-.34s1.12.11,1.63.34c.51.23.96.53,1.35.93.39.39.7.84.92,1.35.22.51.33,1.05.33,1.62s-.11,1.14-.33,1.65c-.22.51-.53.96-.92,1.35s-.84.69-1.35.9c-.51.22-1.06.33-1.64.33s-1.14-.11-1.64-.32c-.51-.21-.96-.51-1.35-.89-.39-.38-.69-.83-.91-1.34-.22-.51-.33-1.07-.33-1.67ZM228.03,81.17c0,.44.08.84.24,1.22s.38.71.66,1c.28.29.61.52.98.68.37.16.78.25,1.21.25s.83-.08,1.2-.25c.37-.16.7-.39.97-.68.28-.29.49-.62.65-1,.16-.38.24-.79.24-1.23s-.08-.85-.24-1.23c-.16-.39-.38-.72-.66-1.01-.28-.29-.61-.52-.98-.68-.37-.16-.78-.25-1.2-.25s-.84.08-1.21.25c-.37.17-.7.4-.98.69-.28.29-.5.63-.65,1.01-.15.39-.23.8-.23,1.23Z"/>
      <path class="cls-1" d="M237.22,77.01h1.11v7.21h4.2v1.07h-5.31v-8.28Z"/>
      <path class="cls-1" d="M243.68,81.16c0-.57.11-1.11.33-1.62.22-.51.52-.96.91-1.35s.84-.7,1.35-.93c.51-.23,1.06-.34,1.64-.34s1.12.11,1.63.34c.51.23.96.53,1.35.93.39.39.7.84.92,1.35.22.51.33,1.05.33,1.62s-.11,1.14-.33,1.65c-.22.51-.53.96-.92,1.35s-.84.69-1.35.9c-.51.22-1.06.33-1.64.33s-1.14-.11-1.64-.32c-.51-.21-.96-.51-1.35-.89-.39-.38-.69-.83-.91-1.34-.22-.51-.33-1.07-.33-1.67ZM244.82,81.17c0,.44.08.84.24,1.22.16.38.38.71.66,1,.28.29.61.52.98.68.37.16.78.25,1.21.25s.83-.08,1.2-.25c.37-.16.7-.39.97-.68.27-.29.49-.62.65-1,.16-.38.24-.79.24-1.23s-.08-.85-.24-1.23c-.16-.39-.38-.72-.66-1.01-.28-.29-.61-.52-.98-.68-.37-.16-.77-.25-1.2-.25s-.84.08-1.21.25c-.37.17-.7.4-.98.69-.28.29-.5.63-.65,1.01-.15.39-.23.8-.23,1.23Z"/>
      <path class="cls-1" d="M259.94,81.3c-.21,0-.42.04-.63.13-.21.08-.39.2-.55.34-.16.15-.29.32-.38.51-.1.19-.14.4-.14.62,0,.3.08.56.23.78.16.23.37.4.63.53.26.13.55.19.86.19.29,0,.55-.04.77-.13.22-.09.41-.21.57-.36.16-.15.28-.31.35-.49l.71.62c-.21.38-.53.7-.96.96-.43.26-.96.39-1.59.39-.52,0-.98-.11-1.4-.32-.41-.21-.74-.5-.98-.87-.24-.37-.36-.78-.36-1.25,0-.36.08-.69.24-1,.16-.31.38-.57.65-.8.27-.23.57-.4.9-.53.33-.13.68-.2,1.04-.21l.02.87ZM264.13,85.29h-1.28l-3.97-5.26c-.07-.11-.15-.24-.24-.4-.09-.16-.17-.34-.23-.53-.07-.19-.1-.4-.1-.6,0-.33.08-.64.24-.92.16-.29.39-.52.69-.69s.67-.26,1.11-.26.85.09,1.21.26.65.38.88.62l-.56.74c-.23-.21-.46-.38-.68-.51s-.45-.19-.67-.19c-.34,0-.6.1-.78.3-.19.2-.28.44-.28.73,0,.14.03.28.09.42.06.14.11.27.17.37.06.1.09.16.11.19l4.32,5.73ZM262.81,80.43h1.02l-1.34,3.44-.8-.5,1.12-2.93Z"/>
      <path class="cls-1" d="M170.16,99.03v-8.28h2.26c.82,0,1.51.13,2.09.38.58.25,1.04.58,1.39,1,.35.41.61.87.77,1.37.16.5.25,1,.25,1.49,0,.63-.11,1.19-.33,1.68-.22.5-.52.92-.9,1.27-.38.35-.82.62-1.31.81-.49.19-1.01.28-1.56.28h-2.66ZM171.27,97.97h1.33c.46,0,.88-.07,1.27-.21.39-.14.72-.34,1.01-.6s.51-.58.67-.96c.16-.38.24-.81.24-1.29,0-.51-.08-.96-.25-1.35-.17-.39-.4-.71-.69-.97-.29-.26-.62-.46-.98-.59-.37-.13-.75-.2-1.16-.2h-1.43v6.15Z"/>
      <path class="cls-1" d="M178.79,90.75h1.11v8.28h-1.11v-8.28Z"/>
      <path class="cls-1" d="M186.56,92.23c-.28-.14-.59-.27-.93-.38-.34-.11-.66-.16-.98-.16-.44,0-.8.1-1.06.31-.26.21-.4.48-.4.82,0,.26.08.48.25.66.17.18.39.33.66.46s.56.25.86.37c.26.1.52.21.77.33.25.12.48.27.68.46.2.18.36.41.48.68.12.27.18.6.18,1,0,.44-.11.83-.33,1.19s-.53.64-.93.85c-.4.21-.89.31-1.44.31-.37,0-.72-.04-1.05-.13-.33-.08-.64-.19-.92-.33-.28-.13-.53-.27-.76-.42l.49-.87c.18.13.39.25.63.37.24.12.48.21.74.29.26.07.51.11.76.11.26,0,.52-.05.77-.14.26-.1.47-.24.64-.44.17-.2.25-.46.25-.79,0-.28-.07-.52-.22-.7-.15-.19-.35-.35-.59-.48-.24-.13-.5-.25-.78-.36-.26-.1-.52-.21-.79-.33-.27-.12-.52-.26-.74-.44-.23-.17-.41-.38-.55-.64-.14-.25-.21-.56-.21-.92,0-.44.1-.81.32-1.14.21-.32.5-.58.86-.77s.79-.29,1.26-.3c.53,0,1.01.07,1.41.19.41.13.77.29,1.08.47l-.42.86Z"/>
      <path class="cls-1" d="M188.94,90.75h5.38v1.07h-4.27v2.52h3.81v1.06h-3.81v2.57h4.43v1.07h-5.54v-8.28Z"/>
      <path class="cls-1" d="M203.58,99.29l-6.4-6.49.32.08.02,6.15h-1.11v-8.53h.06l6.33,6.52-.26-.06-.02-6.21h1.1v8.54h-.03ZM200.75,90c-.24,0-.44-.06-.6-.17-.16-.11-.3-.23-.44-.35-.09-.08-.18-.16-.27-.23-.09-.07-.19-.11-.31-.11-.09,0-.17.04-.25.11-.07.07-.13.17-.17.3-.04.13-.06.28-.06.46h-.57c-.02-.31,0-.58.1-.81.09-.24.22-.42.39-.56.17-.14.38-.21.61-.21.2,0,.37.05.52.16.14.11.28.22.4.33.11.11.21.2.31.28.1.08.21.12.32.12.15,0,.26-.08.33-.25.06-.16.1-.38.1-.66h.57c.03.32,0,.6-.07.84-.08.24-.2.42-.36.55-.16.13-.34.19-.54.19Z"/>
      <path class="cls-1" d="M205.48,94.9c0-.57.11-1.11.33-1.62.22-.51.52-.96.91-1.35.39-.39.84-.7,1.35-.93s1.06-.34,1.64-.34,1.12.11,1.63.34.96.53,1.35.93c.39.39.7.84.92,1.35.22.51.33,1.05.33,1.62s-.11,1.14-.33,1.65c-.22.51-.53.96-.92,1.35s-.84.69-1.35.9c-.51.22-1.06.33-1.64.33s-1.14-.11-1.64-.32-.96-.51-1.35-.89c-.39-.38-.69-.83-.91-1.34-.22-.51-.33-1.07-.33-1.67ZM206.62,94.91c0,.44.08.84.24,1.22.16.38.38.71.66,1,.28.29.61.52.98.68.37.16.78.25,1.21.25s.83-.08,1.2-.25c.37-.16.7-.39.97-.68.28-.29.49-.62.65-1,.16-.38.24-.79.24-1.23s-.08-.85-.24-1.23c-.16-.39-.38-.72-.66-1.01-.28-.29-.61-.52-.98-.68-.37-.16-.78-.25-1.2-.25s-.84.08-1.21.25c-.37.17-.7.4-.98.69-.28.29-.5.63-.65,1.01-.15.39-.23.8-.23,1.23Z"/>
      <path class="cls-1" d="M218.6,99.03l3.62-8.62h.07l3.61,8.62h-1.27l-2.7-6.88.79-.52-3.02,7.4h-1.09ZM220.72,95.89h3.08l.37.96h-3.77l.32-.96Z"/>
      <path class="cls-1" d="M231.07,99.03v-8.54h.01l4.34,6.16-.47-.09,4.33-6.07h.02v8.54h-1.1v-6.02l.07.56-3.13,4.42h-.02l-3.17-4.42.19-.52v5.98h-1.08Z"/>
      <path class="cls-1" d="M241.69,90.75h5.38v1.07h-4.27v2.52h3.81v1.06h-3.81v2.57h4.43v1.07h-5.54v-8.28Z"/>
      <path class="cls-1" d="M249.16,99.03v-8.28h2.26c.82,0,1.51.13,2.09.38s1.04.58,1.39,1c.35.41.61.87.77,1.37.16.5.25,1,.25,1.49,0,.63-.11,1.19-.33,1.68-.22.5-.52.92-.9,1.27s-.82.62-1.31.81c-.49.19-1.01.28-1.56.28h-2.66ZM250.27,97.97h1.33c.46,0,.88-.07,1.27-.21.39-.14.72-.34,1.01-.6s.51-.58.67-.96c.16-.38.24-.81.24-1.29,0-.51-.08-.96-.25-1.35-.17-.39-.4-.71-.69-.97-.29-.26-.62-.46-.98-.59s-.75-.2-1.16-.2h-1.43v6.15Z"/>
      <path class="cls-1" d="M257.78,90.75h1.11v8.28h-1.11v-8.28Z"/>
      <path class="cls-1" d="M261.27,99.03v-8.28h2.26c.82,0,1.51.13,2.09.38s1.04.58,1.39,1c.35.41.61.87.77,1.37.16.5.25,1,.25,1.49,0,.63-.11,1.19-.33,1.68-.22.5-.52.92-.9,1.27s-.82.62-1.31.81c-.49.19-1.01.28-1.56.28h-2.66ZM262.38,97.97h1.33c.46,0,.88-.07,1.27-.21.39-.14.72-.34,1.01-.6s.51-.58.67-.96c.16-.38.24-.81.24-1.29,0-.51-.08-.96-.25-1.35-.17-.39-.4-.71-.69-.97-.29-.26-.62-.46-.98-.59s-.75-.2-1.16-.2h-1.43v6.15Z"/>
      <path class="cls-1" d="M268.62,99.03l3.62-8.62h.07l3.61,8.62h-1.27l-2.7-6.88.79-.52-3.02,7.4h-1.09ZM270.74,95.89h3.08l.37.96h-3.77l.32-.96Z"/>
    </g>
    <g>
      <path class="cls-1" d="M158.51,48.1v-20.61h5.62c2.03,0,3.77.31,5.2.94,1.43.63,2.59,1.45,3.46,2.48.87,1.03,1.52,2.16,1.92,3.41.41,1.25.61,2.49.61,3.72,0,1.56-.27,2.96-.81,4.19-.54,1.24-1.29,2.29-2.24,3.16-.95.87-2.04,1.54-3.26,2.01-1.23.47-2.52.7-3.89.7h-6.61ZM161.28,45.44h3.31c1.14,0,2.19-.17,3.15-.51.96-.34,1.8-.84,2.51-1.48.71-.65,1.27-1.44,1.67-2.38.4-.94.6-2.01.6-3.21,0-1.27-.21-2.39-.63-3.35-.42-.96-.99-1.76-1.71-2.41-.72-.65-1.54-1.14-2.45-1.47-.91-.33-1.87-.5-2.88-.5h-3.56v15.31Z"/>
      <path class="cls-1" d="M179.98,27.48h13.4v2.65h-10.63v6.27h9.49v2.65h-9.49v6.39h11.03v2.65h-13.8v-20.61Z"/>
      <path class="cls-1" d="M200.05,27.48l6.79,17.05-1.57-.31,6.44-16.73h3.22l-9.09,21.55-9.07-21.55h3.28Z"/>
      <path class="cls-1" d="M217.61,40.8h5.33v2.34h-5.33v-2.34Z"/>
      <path class="cls-1" d="M225.94,27.6h3.19l5.59,15.74-.48-.2,4.08-10.55,1.28,3.73-5.45,12.71-8.21-21.44ZM235.83,27.6h2.77l6.04,15.51-.57-.11,5.33-15.39h2.94l-8.1,21.41-8.41-21.41Z"/>
      <path class="cls-1" d="M256.47,27.48h13.4v2.65h-10.63v6.27h9.49v2.65h-9.49v6.39h11.03v2.65h-13.8v-20.61Z"/>
      <path class="cls-1" d="M280.36,27.48c2.07,0,3.7.42,4.89,1.27,1.19.85,1.78,2.16,1.78,3.95,0,1.08-.25,2.02-.74,2.82-.49.8-1.18,1.43-2.07,1.88-.88.46-1.92.71-3.12.77l-.4-1.43c1.39.04,2.63.28,3.73.74,1.1.46,1.98,1.09,2.62,1.91.65.82.97,1.79.97,2.91,0,1.03-.19,1.91-.57,2.64-.38.73-.89,1.33-1.54,1.8-.65.47-1.38.81-2.2,1.03-.82.22-1.66.33-2.54.33h-6.13v-20.61h5.3ZM280.93,36.52c1.14,0,1.97-.32,2.48-.96.51-.64.77-1.41.77-2.32,0-1.08-.33-1.87-1-2.37-.67-.49-1.56-.74-2.68-.74h-2.68v6.39h3.11ZM281.04,45.53c.76,0,1.46-.11,2.1-.34.64-.23,1.14-.58,1.51-1.05.37-.47.56-1.07.56-1.8,0-.8-.21-1.43-.64-1.88-.43-.46-.97-.78-1.64-.98-.67-.2-1.35-.3-2.05-.3h-3.05v6.36h3.22Z"/>
    </g>
    <g>
      <path class="cls-1" d="M162.87,52.83c1.21,0,2.25.2,3.11.61.86.41,1.52.99,1.99,1.76.47.77.7,1.69.7,2.78,0,.66-.1,1.31-.3,1.94-.2.64-.52,1.21-.95,1.73-.44.51-1.01.92-1.71,1.23-.71.31-1.56.46-2.58.46h-2.46v6.12h-2.23v-16.63h4.44ZM163.1,61.2c.66,0,1.2-.11,1.63-.32.43-.21.77-.49,1.01-.82.25-.33.42-.68.53-1.05.11-.37.16-.7.16-.99,0-.34-.05-.69-.16-1.05-.11-.36-.29-.69-.54-.99-.25-.3-.58-.54-.99-.74-.41-.19-.91-.29-1.51-.29h-2.58v6.23h2.44Z"/>
      <path class="cls-1" d="M168.78,69.46l7.27-17.32h.14l7.25,17.32h-2.55l-5.43-13.83,1.59-1.04-6.07,14.86h-2.19ZM173.03,63.15h6.19l.74,1.93h-7.57l.64-1.93Z"/>
      <path class="cls-1" d="M183.96,52.83h11.04v2.14h-4.46v14.49h-2.23v-14.49h-4.35v-2.14Z"/>
      <path class="cls-1" d="M195.51,69.46l7.27-17.32h.14l7.25,17.32h-2.55l-5.43-13.83,1.59-1.04-6.07,14.86h-2.19ZM199.76,63.15h6.19l.74,1.93h-7.57l.64-1.93Z"/>
      <path class="cls-1" d="M225.62,68.03c-.23.2-.55.39-.97.59-.41.19-.87.36-1.37.52-.5.15-1.01.28-1.54.37-.53.09-1.02.14-1.48.14-1.33,0-2.53-.21-3.6-.62-1.07-.41-1.98-.99-2.74-1.73-.76-.74-1.34-1.6-1.75-2.6-.41-1-.61-2.08-.61-3.24,0-1.38.23-2.62.68-3.72.45-1.1,1.07-2.02,1.86-2.78.79-.76,1.7-1.33,2.73-1.73,1.03-.39,2.12-.59,3.27-.59.97,0,1.86.11,2.69.35.83.23,1.56.52,2.19.87l-.76,2.05c-.31-.18-.69-.35-1.14-.51-.45-.15-.92-.28-1.39-.38-.48-.1-.92-.15-1.33-.15-.98,0-1.87.15-2.67.45-.8.3-1.48.73-2.05,1.29-.57.56-1,1.23-1.31,2.02-.31.79-.46,1.68-.46,2.66,0,.91.15,1.73.46,2.48s.74,1.4,1.31,1.94c.57.54,1.25.97,2.04,1.27.79.3,1.66.45,2.61.45.57,0,1.13-.06,1.68-.17.55-.11,1.03-.28,1.43-.49v-3.31h-3.31v-2.14h5.54v6.72Z"/>
      <path class="cls-1" d="M228.75,61.15c0-1.15.22-2.23.66-3.26.44-1.02,1.05-1.92,1.83-2.71.78-.79,1.68-1.41,2.7-1.86,1.02-.45,2.12-.68,3.3-.68s2.26.23,3.28.68c1.02.45,1.92,1.07,2.71,1.86.79.79,1.41,1.69,1.85,2.71.44,1.02.67,2.11.67,3.26s-.22,2.29-.67,3.31c-.44,1.03-1.06,1.93-1.84,2.7-.78.77-1.69,1.38-2.71,1.82-1.03.44-2.12.66-3.29.66s-2.28-.21-3.3-.64c-1.02-.43-1.92-1.03-2.7-1.79-.78-.77-1.39-1.66-1.83-2.69-.44-1.03-.66-2.15-.66-3.36ZM231.05,61.18c0,.87.16,1.69.48,2.45.32.76.77,1.43,1.33,2.01.57.58,1.23,1.04,1.98,1.37.75.33,1.56.49,2.44.49s1.66-.16,2.42-.49c.75-.33,1.4-.79,1.96-1.37.55-.58.99-1.25,1.31-2.01.32-.76.48-1.58.48-2.47s-.16-1.7-.48-2.47c-.32-.77-.77-1.45-1.33-2.04-.57-.58-1.23-1.04-1.98-1.37-.75-.33-1.56-.49-2.42-.49s-1.69.17-2.44.51c-.75.34-1.41.8-1.98,1.38-.57.58-1,1.26-1.31,2.04-.31.77-.46,1.6-.46,2.47Z"/>
      <path class="cls-1" d="M263.8,69.99l-12.86-13.04.64.16.05,12.35h-2.23v-17.14h.11l12.72,13.09-.53-.12-.05-12.47h2.21v17.16h-.07Z"/>
      <path class="cls-1" d="M268.57,52.83h2.23v16.63h-2.23v-16.63Z"/>
      <path class="cls-1" d="M273.83,69.46l7.27-17.32h.14l7.25,17.32h-2.55l-5.43-13.83,1.59-1.04-6.07,14.86h-2.19ZM278.09,63.15h6.19l.74,1.93h-7.57l.64-1.93Z"/>
    </g>
  </g>
</svg>